<svg width="45" height="45" viewBox="0 0 45 45" fill="none" xmlns="http://www.w3.org/2000/svg">
<path d="M34.9001 31L34.8 30.5L34.1001 30.3L33.6001 31.1C33.4001 31.5 33.1001 31.9 32.9001 32.3C32.7001 32.8 32.6001 33.3 32.6001 33.7C32.6001 35.5 32.6001 37.4 32.6001 39.2V41.1001C32.6001 41.5 32.6001 41.7 32.6001 41.7C32.6001 41.7 32.4 41.8 32 41.8H3.1001C2.7001 41.8 2.5 41.8 2.5 41.8C2.5 41.8 2.40015 41.6 2.40015 41.2V2.80001C2.40015 2.40001 2.40015 2.3 2.40015 2.2C2.40015 2.2 2.6 2.10001 3 2.10001H24.3H24.4001V8.70001C24.4001 9.20001 24.5 9.60002 24.7 9.90002C25 10.2 25.4001 10.2 25.9001 10.2H32.5V20.6L33.3 19.6C33.6 19.2 33.9001 18.8 34.1001 18.4C34.2001 18.2 34.3001 18.1 34.4001 18C34.7001 17.5 34.8 17 34.8 16.4C34.8 14.1 34.8 11.8 34.8 9.50001C34.8 8.90001 34.6 8.50002 34.2 8.10001C31.6 5.60001 29.1 3 26.5 0.500001C26.1 0.1 25.7 0 25.2 0C20.2 0 15.2 0 10.2 0H2.69995C0.999951 0 0 0.999998 0 2.7C0 15.7 0 28.6 0 41.6001C0 43.3001 0.999951 44.3 2.69995 44.3C7.59995 44.3 12.5001 44.3 17.4001 44.3C22.3001 44.3 27.2001 44.3 32.1001 44.3C33.8001 44.3 34.8 43.3001 34.8 41.6001V31.5C34.9 31.2 34.9001 31.1 34.9001 31ZM26.8 8.00001V4.10001L30.7 8.00001H26.8Z" fill="#E1251B"/>
<path d="M33.1998 21.2C33.0998 21.3 33.0999 21.4 32.9999 21.5C32.5999 22.2 32.1999 23 31.7999 23.7C30.7999 25.5 29.7999 27.4 28.7999 29.3C28.1999 30.5 27.8 31.8001 27.4 32.9001C27.2 33.5001 27.0999 34.1001 26.9999 34.7001C26.8999 35.0001 26.8999 35.4001 26.7999 35.7001V35.8001H26.6998C25.6998 36.0001 24.6999 36.3001 23.7999 36.4001C23.3999 36.5001 22.7999 36.4001 22.2999 36.3001C22.0999 36.2001 21.8999 36.2001 21.7999 36.0001C21.6999 35.8001 21.6999 35.5001 21.7999 35.2001C21.8999 35.0001 21.8998 34.8001 21.9998 34.6001C22.0998 34.1001 21.8998 33.8001 21.6998 33.6001C21.4998 33.4001 21.1998 33.3001 20.6998 33.4001C20.1998 33.5001 19.7 33.6001 19.4 33.9001C18.8 34.3001 18.0998 34.8001 17.4998 35.3001L16.9998 35.7001C16.7998 35.8001 16.6 36.0001 16.4 36.2001C16.1 36.5001 15.7 36.7001 15.4 37.0001H15.2999C15.2999 36.9001 15.2999 36.9001 15.2999 36.9001C15.6999 36.1001 16.1999 35.2001 16.5999 34.4001L16.6998 34.3001C16.7998 34.1001 16.8999 33.9001 17.0999 33.7001C17.2999 33.4001 17.4998 33.0001 17.6998 32.6001C17.8998 32.1001 17.8999 31.7001 17.5999 31.4001C17.3999 31.1001 16.9 31 16.4 31C15.9 31.1 15.1999 31.3001 14.5999 31.6001C13.3999 32.4001 12.1998 33.2001 10.9998 34.0001L8.99981 35.3001C8.39981 35.7001 7.89986 36.1001 7.29986 36.4001C7.29986 36.4001 7.09981 36.4001 6.99981 36.4001C6.99981 36.2001 6.99981 36.0001 6.99981 35.9001L7.0999 35.8001C7.59991 35.0001 8.29991 34.5001 9.09991 34.3001C9.39991 34.2001 9.69981 34.1001 9.99981 33.8001C10.1998 33.7001 10.2999 33.4001 10.2999 33.2001L10.4 32.7L9.89996 32.6001C9.79996 32.6001 9.59996 32.5 9.39996 32.5C7.39995 32.9001 5.9999 34.1001 5.0999 36.2001C4.8999 36.7001 4.89975 37.3001 5.19975 37.7001C5.49975 38.1001 6.09976 38.4001 6.69976 38.3001C6.99976 38.3001 7.59991 38.2001 8.09991 37.9001C8.79991 37.4001 9.59986 36.9001 10.2999 36.4001C10.7999 36.0001 11.2999 35.7001 11.7999 35.4001C12.8999 34.7001 14.0998 33.9001 15.1998 33.2001C15.0998 33.4001 14.9999 33.6001 14.7999 33.7001C14.4999 34.1001 14.1998 34.5001 13.9998 35.0001C13.6998 35.5001 13.3998 36.2001 13.1998 36.9001C13.0998 37.4001 13.1999 38.0001 13.5999 38.5001C13.7999 38.8001 14.0998 38.9001 14.4998 38.9001C14.7998 38.9001 15.1 38.8001 15.4 38.6001C16.1 38.2001 16.7998 37.8001 17.4998 37.2001C17.8998 36.9001 18.3999 36.6001 18.7999 36.2001C19.0999 36.0001 19.3998 35.7001 19.6998 35.5001C19.5998 36.2001 19.6998 36.8001 19.9998 37.3001C20.2998 37.8001 20.8999 38.1001 21.7999 38.2001C22.5999 38.3001 23.5998 38.3001 24.6998 38.0001C25.6998 37.8001 26.8 37.6001 27.6 37.0001C30.4 35.0001 32.2 33.0001 33.4 30.5C33.5 30.2 33.6999 30 33.7999 29.7L37.6 22.7L33.4999 20.5L33.1998 21.2Z" fill="#E1251B"/>
<path d="M43.7998 13.5C43.3998 12.5 43.1998 11.9 43.7998 11.1C43.9998 10.9 43.9997 10.7 43.9997 10.4C43.9997 10.1 43.7999 9.80003 43.3999 9.60003L43.1997 9.50003L43.2998 9.30003C43.4998 9.00003 43.5998 8.70004 43.7998 8.40004C44.0998 7.80004 43.9999 7.20004 43.3999 6.90004C42.8999 6.60004 42.2999 6.80004 41.8999 7.40004C41.6999 7.70004 41.5999 8.00003 41.3999 8.30003L41.2998 8.50003C40.3998 8.30003 40.1997 8.50003 39.6997 9.30003L33.8999 19.9L37.7998 22L41.8999 14.5C42.1999 15.4 42.0997 16.2 41.6997 16.9C41.3997 17.4 41.0998 18 40.7998 18.6L39.7998 20.5C39.2998 21.5 38.7997 22.4 38.1997 23.4C37.9997 23.7 37.9998 24.1 38.0998 24.4C38.1998 24.7 38.3997 24.9 38.6997 25C38.7997 25 38.8998 25.1 39.0998 25.1C39.3998 25.1 39.7998 24.9 40.0998 24.3C40.3998 23.7 40.7998 23 41.0998 22.4C41.7998 21.1 42.5998 19.7 43.2998 18.3C44.3998 16.7 44.4998 15.1 43.7998 13.5Z" fill="#E1251B"/>
<path d="M28.1001 16.2001H6.80005C6.70005 16.2001 6.50015 16.2001 6.40015 16.2001C5.80015 16.4001 5.5 16.8001 5.5 17.4001C5.6 18.0001 5.9 18.4001 6.5 18.4001C6.6 18.4001 6.80015 18.4001 6.90015 18.4001H7H17.4001H27.8H27.9001H28C28.1 18.4001 28.2 18.4001 28.3 18.4001C28.6 18.4001 28.9001 18.2001 29.1001 18.0001C29.2001 17.8001 29.3 17.5001 29.3 17.3001C29.2 16.9001 28.9 16.6001 28.7 16.4001C28.6 16.1001 28.4001 16.2001 28.1001 16.2001Z" fill="#E1251B"/>
<path d="M27.5996 22.5C27.8996 22.5 28.0997 22.5 28.3997 22.5C28.9997 22.5 29.3995 22.1 29.4995 21.5C29.4995 20.9 29.1995 20.4 28.4995 20.3C28.2995 20.3 28.1997 20.3 27.8997 20.3H6.89957C6.69957 20.3 6.49947 20.3001 6.29947 20.4001C5.69947 20.6001 5.39942 21 5.49942 21.6C5.49942 22.2 5.89942 22.6 6.49942 22.6C6.59942 22.6 6.79942 22.6 6.99942 22.6H27.0996C27.1996 22.5 27.3996 22.5 27.5996 22.5Z" fill="#E1251B"/>
<path d="M29.4003 13.2001C29.3003 12.8001 29.0001 12.6001 28.7001 12.3001C28.5001 12.1001 28.2001 12.1001 28.0001 12.2001H6.90006C6.80006 12.2001 6.60005 12.2001 6.40005 12.2001C6.10005 12.3001 5.8 12.5001 5.6 12.7001C5.5 12.9001 5.3999 13.2001 5.4999 13.4001C5.5999 13.8001 5.89985 14.1001 6.19986 14.3001C6.29986 14.4001 6.49986 14.4001 6.69986 14.4001C6.79986 14.4001 6.80006 14.4001 6.90006 14.4001H6.99991H17.4002H27.8001H27.9002C28.1002 14.4001 28.2002 14.4001 28.4002 14.4001C28.7003 14.3001 29.0001 14.2001 29.2001 13.9001C29.4001 13.7001 29.5003 13.4001 29.4003 13.2001Z" fill="#E1251B"/>
<path d="M20.2 24.3H9.69995C8.69995 24.3 7.80005 24.3 6.80005 24.3C5.90005 24.3 5.5 24.9001 5.5 25.4C5.5 25.7 5.60005 26 5.80005 26.2C6.00005 26.4 6.30005 26.6 6.80005 26.6H20C20.1 26.6 20.1 26.6 20.2 26.6C20.3 26.6 20.5001 26.6 20.6001 26.6C21.2001 26.6 21.6001 26.1 21.6001 25.5C21.6001 24.9 21.3 24.5 20.7 24.3C20.6 24.3 20.4 24.3 20.2 24.3Z" fill="#E1251B"/>
<path d="M20.3001 8.1001C20.2001 8.1001 20.1001 8.1001 19.8001 8.1001H7.69996C7.29996 8.1001 7.0001 8.1001 6.6001 8.1001C5.9001 8.1001 5.5 8.60009 5.5 9.2001C5.5 9.9001 5.9001 10.3001 6.6001 10.3001C6.7001 10.3001 6.80015 10.3001 6.90015 10.3001H19.8001H19.9002C20.0002 10.3001 20.1002 10.3001 20.1002 10.3001C20.7002 10.2001 21.1002 9.8001 21.1002 9.2001C21.4002 8.60009 21.0001 8.2001 20.3001 8.1001Z" fill="#E1251B"/>
</svg>
