<svg width="56" height="56" viewBox="0 0 56 56" fill="none" xmlns="http://www.w3.org/2000/svg">
<path d="M32.6665 7V16.3333C32.6665 16.9522 32.9123 17.5457 33.3499 17.9832C33.7875 18.4208 34.381 18.6667 34.9998 18.6667H44.3332" stroke="#E1251B" stroke-width="3.5" stroke-linecap="round" stroke-linejoin="round"/>
<path d="M39.6665 49H16.3332C15.0955 49 13.9085 48.5083 13.0333 47.6332C12.1582 46.758 11.6665 45.571 11.6665 44.3333V11.6667C11.6665 10.429 12.1582 9.242 13.0333 8.36683C13.9085 7.49167 15.0955 7 16.3332 7H32.6665L44.3332 18.6667V44.3333C44.3332 45.571 43.8415 46.758 42.9663 47.6332C42.0912 48.5083 40.9042 49 39.6665 49Z" stroke="#E1251B" stroke-width="3.5" stroke-linecap="round" stroke-linejoin="round"/>
<path d="M28 25.6667V39.6667" stroke="#E1251B" stroke-width="3.5" stroke-linecap="round" stroke-linejoin="round"/>
<path d="M21 32.6667L28 25.6667L35 32.6667" stroke="#E1251B" stroke-width="3.5" stroke-linecap="round" stroke-linejoin="round"/>
</svg>
