<svg width="218" height="56" viewBox="0 0 218 56" fill="none" xmlns="http://www.w3.org/2000/svg">
<path d="M46.5 5.5H42.2002V21.3H42.1001C40.7001 19.2 38.1001 16.2001 32.6001 16.2001C25.3001 16.2001 18.9004 21.8001 18.9004 33.2001C18.9004 42.3001 23.0003 50.9 32.8003 50.9C36.4003 50.9 40.2003 49.6 42.3003 45.9H42.4004V50.1H50.9004V5.59998H46.5V5.5ZM27.8003 33.8C27.8003 28.6 29.7002 23.7001 35.2002 23.7001C41.2002 23.7001 42.6001 29 42.6001 34.3C42.6001 39.2001 40.4004 43.8 34.9004 43.8C29.4004 43.8 27.8003 37.7001 27.8003 33.8Z" fill="#E1251B"/>
<path d="M59.6001 26.1V49.6H65.8003V26.1H59.6001ZM65.7002 17.6H59.5V23.3H65.7002V17.6Z" fill="#1D1D1B"/>
<path d="M105.2 33.4C105.2 28.2 101.6 25.6 97 25.6C93.3 25.6 91.5002 28.2 90.7002 29.3C89.1002 26.8 87.6002 25.6 84.2002 25.6C80.1002 25.6 78.3 28.1001 77.5 29.7001H77.4004V26.3H71.5V49.8H77.7002V35.5C77.7002 32.9 78.6 30.9 81.5 30.9C85.2 30.9 85.2002 33.7001 85.2002 35.7001V49.8H91.4004V35.7001C91.4004 32.9001 92.5001 30.9 95.6001 30.9C97.4001 30.9 99 32 99 35.5V49.7H105.2V33.4Z" fill="#1D1D1B"/>
<path d="M129.8 32.3C129.8 26.5 123.8 25.5 120.5 25.5C115.7 25.5 110.7 26.5001 110 33.7001H116C116.2 32.3001 116.7 30.4 119.8 30.4C121.4 30.4 123.9 30.5 123.9 33.1C123.9 34.4 122.7 34.8 121.7 35L116.1 35.8C112.2 36.4 109.3 38.7 109.3 43.3C109.3 48.1 112.9 50.1 116.4 50.1C119.3 50.1 121.2 49.1 122.5 48.1C123.1 47.6 124.1 47.9 124.3 48.7C124.4 49.2 124.9 49.5 125.4 49.5H131.2V48.6C130.4 48.3 129.8 47.7 129.8 44.9V32.3ZM123.8 41.2C123.8 44.1 121 45.8 118.3 45.8C117.1 45.8 115.4 45.1 115.4 43C115.4 40.4 117.3 39.9 119.6 39.5C122.2 39.1 123.2 38.7 123.8 38.2V41.2Z" fill="#1D1D1B"/>
<path d="M149.2 41C149.2 42.1 148.1 45.1 145 45.1C140.3 45.1 140.2 40 140.2 37.5C140.2 34.6 141.2 30.7001 145.1 30.7001C148 30.5001 148.9 32.9 149.2 34.5H155.5C154.9 27.2 148.8 25.5 145.1 25.5C137.2 25.5 133.9 30.9 133.9 38.5C133.9 43.4 135.9 50.2 144.7 50.2C153.3 50.2 155.2 43.5 155.4 41H149.2Z" fill="#1D1D1B"/>
<path d="M182.4 37.8001C182.4 29.3 176.7 25.5 170.4 25.5C164.1 25.5 158.4 29.4 158.4 37.8001C158.4 46.3001 164.1 50.1 170.4 50.1C176.8 50.2 182.4 46.3001 182.4 37.8001ZM176.1 37.8001C176.1 40.8001 175.2 44.9 170.5 44.9C165.7 44.9 164.9 40.8001 164.9 37.8001C164.9 34.8 165.8 30.7001 170.5 30.7001C175.2 30.7001 176.1 34.9001 176.1 37.8001Z" fill="#1D1D1B"/>
<path d="M193.9 30.5H197.9V26.1H193.9V25.2001C193.9 23.3001 193.9 22.6 196.1 22.6H197.8V17.6C197.3 17.6 196.4 17.5 194.6 17.5C190.4 17.5 187.7 19.4001 187.7 24.2001V26.1H184.3V30.5H187.7V49.5H193.9V30.5Z" fill="#1D1D1B"/>
<path d="M201.6 26.1V49.6H207.8V26.1H201.6ZM207.8 17.6H201.6V23.3H207.8V17.6Z" fill="#1D1D1B"/>
<path d="M212.1 43.7C211.3 44.5 211 45.6 211.3 46.9C211.3 47.1 211.4 47.2 211.5 47.4C212.4 48.7 213.5 49.3 215.1 49C215.4 48.9 215.7 48.8 215.9 48.6C217.2 47.7 217.6 46.5 217.3 44.9C217.3 44.7 217.2 44.6 217.1 44.4C216.4 43.3 215.4 42.7 214.3 42.7C213.4 42.8 212.7 43.1 212.1 43.7ZM216.9 48.5C215.9 49.4 214.7 49.8 213.3 49.4C213.1 49.3 212.8 49.2 212.6 49.1C211.1 48.1 210.5 46.7 210.8 44.9C210.8 44.7 210.9 44.4 211.1 44.2C212.1 42.6 213.6 42 215.4 42.4C215.6 42.5 215.9 42.6 216.1 42.7C217.3 43.5 217.9 44.6 217.9 45.9C217.9 46.9 217.6 47.8 216.9 48.5ZM215 44.5C214.8 44.4 214.5 44.4 214.2 44.4H213.6V45.8001H214.2C214.5 45.8001 214.7 45.8 214.9 45.7C215.2 45.6 215.3 45.4 215.3 45.1C215.2 44.8 215.1 44.7 215 44.5ZM214.2 43.9C214.7 43.9 215.1 43.9 215.3 44C215.7 44.2 215.9 44.5 215.9 45C215.9 45.4 215.8 45.6001 215.5 45.8001C215.4 45.9001 215.2 46 214.9 46C215.2 46 215.4 46.2 215.6 46.4C215.7 46.6 215.8 46.8 215.8 47V47.3C215.8 47.4 215.8 47.5 215.8 47.6C215.8 47.7 215.8 47.8 215.8 47.8H215.1V47.7V47.4C215.1 46.9 215 46.6 214.7 46.5C214.5 46.4 214.3 46.4 213.9 46.4H213.3V48H212.6V44H214.2V43.9Z" fill="#1D1D1B"/>
<path d="M46.5 55.4H10.7002C5.3002 55.4 0.900391 51 0.900391 45.6V9.80005C0.900391 4.40005 5.3002 0 10.7002 0H46.5C51.9 0 56.3003 4.40005 56.3003 9.80005V45.6C56.4003 51 52 55.4 46.5 55.4ZM10.7002 1.70007C6.3002 1.70007 2.7002 5.30007 2.7002 9.70007V45.7C2.7002 50.1 6.3002 53.7 10.7002 53.7H46.7002C51.1002 53.7 54.7002 50.1 54.7002 45.7V9.70007C54.7002 5.30007 51.1002 1.70007 46.7002 1.70007H10.7002Z" fill="#E1251B"/>
</svg>
